<svg xmlns="http://www.w3.org/2000/svg" width="32" height="32" viewBox="0 0 32 32"><path d="M12 4c0 2.21 1.79 4 4 4s4-1.79 4-4-1.79-4-4-4-4 1.79-4 4zm8.485 3.515c0 2.21 1.79 4 4 4s4-1.79 4-4-1.79-4-4-4-4 1.79-4 4zM26 16c0 1.105.895 2 2 2s2-.895 2-2-.895-2-2-2-2 .895-2 2zm-3.515 8.485c0 1.105.895 2 2 2s2-.895 2-2-.895-2-2-2-2 .895-2 2zM14 28c0 1.105.895 2 2 2s2-.895 2-2-.895-2-2-2-2 .895-2 2zm-8.485-3.515c0 1.105.895 2 2 2s2-.895 2-2-.895-2-2-2-2 .895-2 2zm-1-16.97c0 1.657 1.343 3 3 3s3-1.343 3-3-1.343-3-3-3-3 1.343-3 3zM1.75 16c0 1.243 1.007 2.25 2.25 2.25S6.25 17.243 6.25 16 5.243 13.75 4 13.75 1.75 14.757 1.75 16z" fill="#959595"/></svg>