<?xml version="1.0" standalone="no"?>
<!DOCTYPE svg PUBLIC "-//W3C//DTD SVG 1.1//EN" "http://www.w3.org/Graphics/SVG/1.1/DTD/svg11.dtd" >
<svg xmlns="http://www.w3.org/2000/svg">
<metadata>
This is a custom SVG font generated by IcoMoon.
<iconset grid="16"></iconset>
</metadata>
<defs>
<font id="icomoon" horiz-adv-x="512" >
<font-face units-per-em="512" ascent="480" descent="-32" />
<missing-glyph horiz-adv-x="512" />
<glyph class="hidden" unicode="&#xf000;" d="M0,480L 512 -32L0 -32 z" horiz-adv-x="0" />
<glyph unicode="&#xe032;" d="M 192,416A64,64 12780 1 1 320,416A64,64 12780 1 1 192,416zM 327.765,359.765A64,64 12780 1 1 455.765,359.765A64,64 12780 1 1 327.765,359.765zM 416,224A32,32 12780 1 1 480,224A32,32 12780 1 1 416,224zM 359.765,88.235A32,32 12780 1 1 423.765,88.23500000000001A32,32 12780 1 1 359.765,88.23500000000001zM 224.001,32A32,32 12780 1 1 288.001,32A32,32 12780 1 1 224.001,32zM 88.236,88.235A32,32 12780 1 1 152.236,88.23500000000001A32,32 12780 1 1 88.236,88.23500000000001zM 72.236,359.765A48,48 12780 1 1 168.236,359.765A48,48 12780 1 1 72.236,359.765zM 28,224A36,36 12780 1 1 100,224A36,36 12780 1 1 28,224z"  />
<glyph unicode="&#xe03c;" d="M 385.395,271.27l0,52.672 c0,0-0.026,122.906-122.88,122.906c-122.88,0-122.906-122.906-122.906-122.906l0-52.672 L 86.976,271.27 l0-245.76 l 351.104,0 
		l0,245.76 L 385.395,271.27 z M 280.064,135.706l0-57.523 l-35.098,0 l0,57.523 c-10.445,6.106-17.562,17.293-17.562,30.234c0,19.418, 15.731,35.136, 35.123,35.136
		s 35.11-15.731, 35.11-35.136C 297.638,152.986, 290.522,141.798, 280.064,135.706z M 332.723,271.27L 192.269,271.27 l0,52.659 
		c 0.205,14.694-0.013,70.234, 70.234,70.234c 70.221,0, 70.029-55.744, 70.208-70.234L 332.71,271.27 z"  />
<glyph unicode="&#xe000;" d="M 465.318,128.909L 35.891,128.909 c 0.026-31.066, 23.718-45.466, 42.79-45.568l 343.872,0 C 445.274,83.456, 465.216,101.325, 465.318,128.909
		L 465.318,128.909zM 383.731,348.173L 127.488,348.173 l0-168.102 c 0.026-22.822, 19.699-40.87, 40.934-40.909l 166.221,0 
		c 23.974,0.038, 40.307,20.198, 40.23,40.909l0,13.939 c 47.437,0.051, 81.869,35.661, 81.856,77.184C 456.742,313.485, 423.002,348.198, 383.731,348.173z
		 M 374.874,226.112l0,90.445 l 8.845,0 c 32.486,0.038, 42.931-30.682, 42.765-45.594C 426.509,246.938, 408.717,223.872, 374.874,226.112z"  />
<glyph unicode="&#xe033;" d="M 115.2,295.731c 20.454,15.859, 37.402,4.928, 60.045-21.261c 2.547-2.931, 5.965,0.499, 7.91,2.214
	c 1.933,1.69, 31.795,28.544, 33.254,29.824c 1.459,1.267, 3.213,3.661, 0.896,6.362c-2.33,2.688-10.829,13.696-16.269,20.813
	c-39.603,51.814, 108.365,86.925, 85.619,87.514c-11.546,0.282-57.958,0.819-64.883,0.102c-28.122-2.982-63.398-29.248-81.165-41.446
	C 117.363,363.891, 108.685,354.573, 107.238,353.318c-6.566-5.747-1.050-19.021-12.954-29.44c-12.608-11.072-20.454-2.726-27.738-9.114
	c-3.635-3.2-13.747-10.765-16.64-13.299c-2.918-2.56-3.443-6.886-0.474-10.33c0,0, 27.686-30.592, 30.016-33.267
	c 2.33-2.701, 8.55-4.992, 12.429-1.587c 3.891,3.418, 13.837,12.122, 15.526,13.632C 109.107,271.398, 106.291,288.819, 115.2,295.731z M 240.269,284.429
	c-2.624,3.021-5.862,3.098-8.704,0.602l-31.424-27.405c-2.47-2.176-2.803-6.208-0.589-8.781L 381.248,42.112
	c 4.25-4.902, 11.61-5.414, 16.474-1.165l 21.248,17.805c 4.851,4.262, 5.363,11.699, 1.126,16.589L 240.269,284.429z M 482.547,372.429
	c-1.626,10.842-7.232,8.538-10.15,3.955c-2.893-4.582-15.782-24.115-21.082-32.947c-5.261-8.806-18.214-26.099-42.368-9.011
	c-25.152,17.779-16.397,30.182-12.006,38.554c 4.378,8.358, 17.894,31.859, 19.853,34.816s-0.32,11.546-8.128,7.949
	c-7.821-3.61-55.27-22.49-61.85-49.485c-6.72-27.546, 5.619-52.109-18.624-76.557l-29.402-30.669l 29.53-34.342l 36.262,34.406
	c 8.64,8.691, 27.059,17.114, 43.763,13.325c 35.776-8.102, 55.27,5.363, 67.034,27.546C 485.914,319.808, 484.173,361.613, 482.547,372.429z M 106.56,73.139
	c-4.557-4.595-4.557-12.032,0-16.64l 20.838-20.352c 4.557-4.582, 11.789-2.675, 16.346,1.933l 107.507,105.69l-32.947,37.491L 106.56,73.139z"  />
<glyph unicode="&#xe034;" d="M 460.621,352.179C 199.923,247.808, 305.51,528.691, 103.322,380.826L 61.043,365.632l 83.75-329.267l 46.131,0 L 149.901,197.632
		c 180.39,151.232, 107.354-164.762, 320.742,145.28C 475.597,350.118, 468.979,355.52, 460.621,352.179z"  />
<glyph unicode="&#xe035;" d="M 295.526,115.149c0,32.973, 24.986,51.2, 65.766,78.208c 49.869,33.050, 111.936,74.15, 111.936,171.776
		c0,8.781-7.194,15.898-16.077,15.898l-77.952,0 c-11.034,20.352-43.853,42.138-110.502,42.138c-66.65,0-99.469-21.786-110.49-42.138l-77.952,0 
		c-8.896,0-16.090-7.13-16.090-15.898c0-97.626, 62.080-138.726, 111.949-171.776c 40.781-27.008, 65.766-45.235, 65.766-78.208l0-29.786 
		c-42.829-4.762-74.304-20.595-74.304-39.45c0-22.592, 45.274-40.896, 101.12-40.896s 101.12,18.317, 101.12,40.896c0,18.854-31.475,34.688-74.304,39.45L 295.514,115.149 z
		 M 358.63,230.003c 12.902,27.29, 23.104,64.256, 24.755,119.219l 56.998,0 C 434.944,287.872, 398.093,256.883, 358.63,230.003z M 268.698,395.302
		c 62.106,0.038, 86.349-25.344, 86.31-34.752c0-9.485-24.218-34.854-86.31-34.906c-62.106,0.051-86.31,25.408-86.31,34.906
		C 182.362,369.946, 206.605,395.341, 268.698,395.302z M 97.024,349.222l 57.011,0 c 1.651-54.976, 11.853-91.942, 24.755-119.219
		C 139.315,256.883, 102.438,287.872, 97.024,349.222z"  />
<glyph unicode="&#xe036;" d="M 204.851,23.501c 16.128-11.072, 36.314-18.573, 60.454-17.984c 24.128-0.589, 44.326,6.912, 60.454,17.984l0,44.749 l-120.896,0 
		L 204.864,23.501 zM 323.802,92.429c0,88.653, 100.454,125.478, 92.928,219.61c-4.723,59.418-44.979,126.822-151.424,126.822
		c-106.458,0-146.701-67.136-151.437-126.554c-7.526-94.131, 92.915-131.238, 92.915-219.891L 323.802,92.416 z M 212.851,275.251
		c 5.248,4.147, 12.851,3.251, 16.973-2.022l 34.765-44.16l 34.739,44.16c 4.122,5.274, 11.725,6.17, 16.973,2.022
		c 5.248-4.122, 6.144-11.725, 2.022-16.947l-40.154-51.034c-0.23-0.282-0.525-0.525-0.794-0.806l0-65.677 c0-6.669-5.414-12.070-12.083-12.070
		s-12.096,5.414-12.096,12.070l0,64.346 c-0.794,0.614-1.574,1.306-2.227,2.138l-40.154,51.034C 206.707,263.526, 207.603,271.13, 212.851,275.251z"  />
<glyph unicode="&#xe037;" d="M 268.646,177.677L 436.019,419.622L 237.043,419.622 c 7.949-6.566, 14.605-15.603, 18.79-26.445
	c 11.277-29.235, 0.512-60.608-24.038-70.093c-24.563-9.472-53.606,6.554-64.896,35.763c-8.768,22.771-4.16,46.771, 9.894,60.774l-94.976,0 l 163.93-236.954
	l0-146.726 l-80.166,0 l0-22.886 l 183.232,0 l0,22.886 l-80.166,0 L 268.646,177.677 z"  />
<glyph unicode="&#xe038;" d="M 370.496,189.568L 370.496,415.194 c0,12.006-8.794,21.709-19.61,21.709s-19.597-9.715-19.597-21.709l0-225.549 
		c-22.758-12.237-39.091-45.107-39.091-83.853c0-49.178, 26.253-89.024, 58.624-89.024s 58.624,39.846, 58.624,89.024
		C 409.446,144.448, 393.178,177.28, 370.496,189.568zM 234.496,427.123c0,5.389-4.365,9.779-9.766,9.779c-5.402,0-9.766-4.39-9.766-9.779l0-90.56 l-25.6,0 L 189.363,427.123 
		c0,5.389-4.378,9.779-9.766,9.779c-5.402,0-9.766-4.39-9.766-9.779l0-90.56 l-25.6,0 L 144.23,427.123 c0,5.389-4.378,9.779-9.779,9.779
		c-5.402,0-9.766-4.39-9.766-9.779l0-125.939 c0-0.269, 0.128-0.486, 0.154-0.742c-0.026-0.486-0.154-0.934-0.154-1.434
		c0-16.781, 14.336-30.4, 32.013-30.4l 3.968,0 l0-230.579 c0-11.763, 8.499-21.274, 18.995-21.274s 18.995,9.51, 18.995,21.274L 198.656,268.608 l 3.802,0 
		c 17.69,0, 32.013,13.619, 32.013,30.4c0,0.499-0.128,0.947-0.154,1.434c 0.026,0.256, 0.154,0.474, 0.154,0.742L 234.47,427.123 z"  />
<glyph unicode="&#xe039;" d="M 419.226,417.165L 102.323,417.165 c-31.68,0-46.886-13.555-46.886-41.958l0-307.2 c0-28.403, 15.206-38.784, 46.886-38.784l 316.902,0 
			c 31.706,0, 46.899,13.568, 46.899,41.958L 466.125,375.194 C 466.125,403.61, 450.931,417.165, 419.226,417.165z M 419.226,49.485L 102.323,49.485 
			c-21.402,0-24.781,2.56-24.781,21.683L 77.542,317.862 l 366.464,0 l0-246.682 C 444.006,52.045, 440.64,49.485, 419.226,49.485zM 201.741,99.315c0,68.698, 94.349,78.515, 94.349,123.776c0,19.098-14.451,31.91-34.637,31.91
			c-25.344,0-38.989-24.538-38.989-24.538l-19.904,13.35c0,0, 17.459,36.544, 60.8,36.544c 35.443,0, 60.8-22.093, 60.8-55.347
			c0-63.258-91.878-73.075-92.429-116.979l 95.45,0 l0-23.45 l-124.070,0 C 202.291,89.779, 201.741,94.669, 201.741,99.315z"  />
<glyph unicode="&#xe03a;" d="M 193.152,138.829l 188.723,195.84c 21.773,8.998, 77.926-1.574, 85.389,39.898l-36.032,34.726l-36.045,34.739
		c-41.19-8.998-28.531-64.717-36.723-86.784L 169.728,161.357c-35.558-31.808-43.328,29.594-65.984,6.106c-66.15-68.582-53.299-141.325-45.107-144.794
		c 3.802-8.077, 76.966-18.227, 143.040,50.406C 224.307,96.614, 162.662,102.093, 193.152,138.829z M 386.803,363.123c0,0-4.544,68.634, 2.854,61.478
		l 29.235-28.186l 29.222-28.16C 455.539,361.139, 386.803,363.123, 386.803,363.123z"  />
<glyph unicode="&#xe02e;" d="M 473.6,360.832c-16.051-7.13-33.293-11.93-51.392-14.093c 18.483,11.072, 32.666,28.608, 39.347,49.498
	c-17.306-10.266-36.454-17.702-56.819-21.722c-16.32,17.395-39.578,28.262-65.318,28.262c-49.382,0-89.459-40.051-89.459-89.459
	c0-7.014, 0.794-13.85, 2.317-20.39c-74.342,3.725-140.301,39.347-184.41,93.466C 60.16,373.197, 55.744,357.824, 55.744,341.427
	c0-31.027, 15.782-58.406, 39.795-74.458c-14.669,0.461-28.467,4.48-40.512,11.187c-0.026-0.371-0.026-0.742-0.026-1.114
	c0-43.354, 30.848-79.514, 71.77-87.731c-7.501-2.048-15.411-3.149-23.578-3.149c-5.747,0-11.354,0.55-16.819,1.6
	c 11.392-35.52, 44.442-61.402, 83.571-62.131c-30.63-24-69.184-38.298-111.117-38.298c-7.219,0-14.336,0.422-21.338,1.267
	c 39.578-25.395, 86.618-40.218, 137.139-40.218c 164.57,0, 254.566,136.32, 254.566,254.566c0,3.866-0.077,7.744-0.256,11.584
	C 446.438,327.13, 461.606,342.886, 473.6,360.832z"  />
<glyph unicode="&#xe02f;" d="M 454.976,115.61c-21.734,15.488-69.939,25.958-115.674,31.936c-31.68,4.147-62.144,6.131-81.754,6.131
		c-20.659,0-51.021-1.818-82.253-5.722c-46.49-5.798-94.822-16.269-115.994-32.333c-6.976-5.312-11.059-11.213-11.059-17.779
		c0-14.579,0-15.629, 1.894-17.613c 0.294-0.23, 1.638-0.755, 7.45-0.755c 1.754,0, 3.674,0.038, 5.798,0.077
		c 2.752,0.064, 5.811,0.128, 9.254,0.128l 369.651,0.013l 6.451,0 c 6.656,0, 14.925,0, 16.141,1.869c 2.010,3.11, 2.010,1.254, 2.010,16.269
		C 466.893,104.358, 462.464,110.272, 454.976,115.61zM 106.304,258.688c 10.163,0, 31.322,18.176, 31.373,40.563c-0.026,22.426-8.768,40.55-31.373,40.614
		c-22.605-0.051-31.36-18.163-31.398-40.614C 74.944,276.851, 96.141,258.675, 106.304,258.688zM 167.13,177.677c 0.435,12.89, 0.435,36.518, 0.435,45.594c0,18.099-21.67,20.646-39.309,26.88
		c-7.334-6.4-15.424-10.291-21.952-10.291c-6.554,0-14.643,3.878-21.99,10.291c-18.483-5.837-39.296-8.23-39.296-26.88
		c0-18.112, 0.026-62.464, 3.469-79.642C 73.626,162.739, 123.814,172.621, 167.13,177.677zM 256.755,185.075c 0.73,0, 25.19-0.576, 57.229-3.725c 4.045,16.154, 4.058,65.28, 4.058,84.339
		c0,18.099-21.67,20.646-39.309,26.88c-7.334-6.4-15.424-10.291-21.952-10.291c-6.554,0-14.643,3.878-21.978,10.291
		c-18.496-5.824-39.309-8.218-39.309-26.88c0-18.867,0-67.469, 3.93-83.878C 231.501,184.742, 256.038,185.075, 256.755,185.075zM 256.781,301.12c 10.163,0, 31.322,18.176, 31.373,40.563c-0.026,22.426-8.768,40.563-31.373,40.627
		c-22.605-0.064-31.373-18.176-31.398-40.627C 225.421,319.296, 246.605,301.12, 256.781,301.12zM 408.845,258.688c 10.163,0, 31.309,18.176, 31.373,40.563c-0.038,22.426-8.781,40.55-31.373,40.614
		c-22.605-0.051-31.373-18.163-31.398-40.614C 377.485,276.851, 398.669,258.675, 408.845,258.688zM 466.56,143.296c 3.533,17.088, 3.546,61.734, 3.546,79.962c0,18.099-21.67,20.646-39.322,26.88
		c-7.322-6.4-15.424-10.291-21.939-10.291c-6.566,0-14.656,3.878-21.99,10.291c-18.483-5.837-39.309-8.23-39.309-26.88
		c0-9.216,0-33.062, 0.461-46.144C 391.104,171.827, 441.152,161.869, 466.56,143.296z"  />
<glyph unicode="&#xe030;" d="M 329.958,375.539l0-59.494 c 36.365-24.064, 60.416-65.293, 60.416-112.064c0-74.099-60.288-134.387-134.374-134.387
		S 121.626,129.869, 121.626,203.981c0,48.602, 26.010,91.123, 64.781,114.726L 186.406,377.293 c-68.659-27.686-117.299-94.874-117.299-173.325
		c0-103.066, 83.84-186.918, 186.906-186.918s 186.906,83.853, 186.906,186.918C 442.906,280.755, 396.326,346.816, 329.958,375.539zM 258.957,232.41c 18.086,0, 32.742,12.454, 32.742,27.814L 291.699,428.723 c0,15.373-14.656,27.827-32.742,27.827
		c-18.074,0-32.742-12.454-32.742-27.827L 226.214,260.224 C 226.227,244.864, 240.883,232.41, 258.957,232.41z"  />
<glyph unicode="&#xe031;" d="M 340.339,297.818c-3.046,8.192, 81.664,83.84, 32.243,145.139c-11.571,14.336-50.778-68.621-106.458-106.214
	c-30.72-20.723-102.221-64.858-102.221-89.216l0-157.824 c0-29.338, 113.357-60.39, 199.552-60.39c 31.526,0, 77.299,197.862, 77.299,229.286
	C 440.742,290.138, 343.373,289.6, 340.339,297.818z M 140.813,295.603c-15.181,0-69.21-9.229-69.21-72.013l0-111.834 
	c0-62.797, 54.042-69.722, 69.21-69.722c 15.168,0-23.078,13.21-23.078,52.122L 117.734,241.178 C 117.734,281.984, 155.981,295.603, 140.813,295.603z"  />
<glyph unicode="&#xe02d;" d="M 459.149,179.546c 2.995,13.76, 4.582,28.019, 4.582,42.65c0,109.709-88.934,198.669-198.669,198.669
		c-11.584,0-22.95-1.011-33.971-2.918c-17.766,11.187-38.784,17.69-61.299,17.69c-63.642,0-115.226-51.584-115.226-115.2
		c0-21.286, 5.773-41.203, 15.834-58.291c-2.611-12.915-4.032-26.278-4.032-39.962c0-109.696, 88.96-198.669, 198.694-198.669
		c 12.429,0, 24.602,1.152, 36.378,3.328c 16.218-8.73, 34.739-13.658, 54.464-13.658c 63.629,0, 115.226,51.558, 115.226,115.2
		C 471.142,146.778, 466.816,164.147, 459.149,179.546z M 367.846,126.63c-9.331-13.197-23.104-23.616-40.832-31.002
		c-17.6-7.309-38.63-10.982-62.515-10.982c-28.646,0-52.749,5.043-71.629,15.040l0,0.013 c-13.504,7.27-24.64,17.178-33.101,29.376
		c-8.538,12.301-12.915,24.576-12.915,36.506c0,7.565, 2.944,14.221, 8.627,19.546c 5.645,5.325, 12.941,8.013, 21.491,8.013
		c 7.027,0, 13.197-2.125, 18.189-6.336c 4.749-4.032, 8.768-9.907, 11.968-17.421l 0.013,0 c0,0-0.013,0-0.026,0l 0.026-0.026l0,0.026 
		c 3.469-8, 7.27-14.758, 11.264-20.019c 3.776-4.992, 9.242-9.229, 16.269-12.531c 6.989-3.328, 16.55-5.056, 28.403-5.056
		c 16.269,0, 29.517,3.469, 39.386,10.24c 4.877,3.315, 8.41,6.899, 10.752,10.867c 2.342,3.955, 3.482,8.23, 3.482,13.030
		c-0.013,7.629-2.394,13.414-7.322,18.061c-5.261,4.915-12.237,8.781-20.774,11.456c-8.986,2.79-21.222,5.824-36.365,8.998
		c-20.646,4.416-38.234,9.677-52.275,15.642c-14.349,6.118-26.010,14.643-34.522,25.306c-8.717,10.88-13.107,24.55-13.107,40.486
		c0,15.219, 4.621,29.030, 13.722,40.87c 9.011,11.776, 22.17,20.89, 39.040,27.123c 16.653,6.144, 36.378,9.267, 58.688,9.267
		c 17.805,0, 33.498-2.061, 46.669-6.144c 13.184-4.122, 24.333-9.677, 33.152-16.55c 8.819-6.899, 15.437-14.298, 19.61-22.067
		c 4.173-7.795, 6.336-15.59, 6.336-23.168c 0.013-7.386-2.893-14.144-8.448-19.942c-5.619-5.85-12.838-8.858-21.184-8.832
		c-7.526-0.013-13.581,1.83-17.83,5.606c-3.878,3.418-7.757,8.614-12.083,16.051l-0.013,0.013l0,0.013 
		c-4.915,9.306-10.803,16.589-17.523,21.709c-6.349,4.851-17.318,7.45-32.525,7.437c-14.118,0-25.459-2.842-33.818-8.307
		c-4.058-2.662-7.040-5.491-8.947-8.474c-1.946-3.008-2.88-6.17-2.88-9.69c0-4.288, 1.19-7.782, 3.699-10.867
		c 2.701-3.302, 6.566-6.246, 11.482-8.73c 5.158-2.598, 10.47-4.646, 15.795-6.118c 5.491-1.523, 14.746-3.789, 27.418-6.72l0,0
		c 16.115-3.469, 30.925-7.334, 44.032-11.52c 13.312-4.25, 24.806-9.51, 34.24-15.642c 9.664-6.298, 17.331-14.387, 22.758-24.038
		c 5.491-9.728, 8.218-21.696, 8.218-35.507C 381.952,155.021, 377.178,139.866, 367.846,126.63zM 207.117,169.357L 207.13,169.357L 207.142,169.331 	zM 272.717,258.304L 272.691,258.317L 272.474,257.254 	zM 193.882,101.594L 193.882,101.594L 193.882,101.606 	zM 311.859,289.114L 311.859,289.114L 310.925,288.589L 311.885,289.075 	z"  />
<glyph unicode="&#xe001;" d="M 260.122,61.158L 170.47,216.461L 80.794,371.776L 260.122,371.776L 439.475,371.776L 349.798,216.461 z"  />
<glyph unicode="&#xe002;" d="M 308.096,233.664L 308.096,433.83L 193.69,433.83L 193.69,233.664L 79.322,233.664L 250.88,4.89L 422.477,233.664 z"  />
<glyph unicode="&#xe003;" d="M 430.195,247.616L 91.302,247.616 c-15.603,0-28.25-12.646-28.25-28.237c0-15.616, 12.646-28.25, 28.25-28.25l 338.893,0 
		c 15.603,0, 28.25,12.634, 28.25,28.25C 458.445,234.957, 445.798,247.616, 430.195,247.616z M 91.302,304.090l 338.893,0 
		c 15.603,0, 28.25,12.634, 28.25,28.237c0,15.59-12.646,28.237-28.25,28.237L 91.302,360.563 c-15.603,0-28.25-12.646-28.25-28.237
		C 63.066,316.723, 75.712,304.090, 91.302,304.090z M 430.195,134.643L 91.302,134.643 c-15.603,0-28.25-12.646-28.25-28.25c0-15.59, 12.646-28.237, 28.25-28.237
		l 338.893,0 c 15.603,0, 28.25,12.646, 28.25,28.237C 458.445,121.984, 445.798,134.643, 430.195,134.643z"  />
<glyph unicode="&#xe004;" d="M 277.018,415.206L 420.621,415.206L 236.211,220.288L 420.621,23.514L 277.018,23.514L 92.582,218.368 z"  />
<glyph unicode="&#xe005;" d="M 137.165,329.626c-14.259,0-48.192,0-48.192,0s-0.102-35.456-0.102-47.667l0-240.422 c0-26.304, 21.658-47.68, 48.282-47.68
		l 237.734,0 c 26.624,0, 48.269,21.376, 48.269,47.68L 423.155,281.971 c0,13.453,0,47.667,0,47.667s-35.277,0-48.269,0L 137.165,329.638 z M 397.581,281.971l0-240.422 
		c0-12.723-10.176-23.078-22.669-23.078L 137.165,18.47 c-12.518,0-22.682,10.355-22.682,23.078L 114.483,281.971 c0,6.451, 0.102,22.746, 0.102,22.746
		s 16.422,0.32, 22.592,0.32l 237.734,0 c 4.826,0, 22.272,0.077, 22.272,0.077S 397.581,289.766, 397.581,281.971zM 160.602,267.917L 186.202,267.917L 186.202,50.368L 160.602,50.368zM 242.726,267.917L 268.326,267.917L 268.326,50.368L 242.726,50.368zM 325.875,267.917L 351.475,267.917L 351.475,50.368L 325.875,50.368zM 409.28,415.718l-77.594,0 c-8.205,25.6-19.098,38.4-44.928,38.4l-61.44,0 c-25.869,0-36.736-12.8-44.928-38.4L 102.746,415.718 c-32.845,0-44.954-25.6-44.954-51.2
		l 396.416,0 C 454.208,390.118, 442.125,415.718, 409.28,415.718z"  />
<glyph unicode="&#xe006;" d="M 454.4-0.282c0,0,0,27.034,0,36.467l0,372.48 c0,9.459-0.128,36.634-0.128,36.634s-26.893,0-38.080,0L 57.6,445.299 l0-409.114 
	c-0.013-10.547,0-36.467,0-36.467 M 117.645-0.435l 276.608,0  M 432.576,271.501l-38.31,0 l0,53.338 l 38.31,0 L 432.576,271.501 z M 79.424,173.286l 38.234,0 l0-53.363 L 79.424,119.923 
	L 79.424,173.286 z M 372.429,395.802l0-163.878 L 139.456,231.923 L 139.456,395.802 L 372.429,395.802 z M 139.456,210.074l 232.973,0 l0-162.278 L 139.456,47.795 L 139.456,210.074 z M 394.266,346.688L 394.266,395.802 l 38.31,0 l0-49.114 
	L 394.266,346.688 z M 117.645,395.802l0-49.69 L 79.424,346.112 L 79.424,395.802 L 117.645,395.802 z M 117.645,324.262l0-53.376 L 79.424,270.886 l0,53.376 L 117.645,324.262 z M 117.645,249.050l0-53.926 L 79.424,195.123 l0,53.926 L 117.645,249.050 z
	 M 117.645,98.086l0-50.291 L 79.424,47.795 l0,50.291 L 117.645,98.086 z M 394.266,47.795l0,50.906 l 38.31,0 l0-50.906 L 394.266,47.795 z M 394.266,120.538l0,53.338 l 38.31,0 l0-53.338 L 394.266,120.538 z
	 M 394.266,195.712l0,53.939 l 38.31,0 l0-53.939 L 394.266,195.712 z"  />
<glyph unicode="&#xe007;" d="M 455.373,59.315L 56.614,59.315L 56.614,258.675L 74.739,258.675L 74.739,77.44L 437.248,77.44L 437.248,258.675L 455.373,258.675 	zM 292.25,261.811L 292.25,388.685L 219.738,388.685L 219.738,261.811L 147.238,261.811L 256,116.8L 364.749,261.811 	
		z"  />
<glyph unicode="&#xe008;" d="M 126.592,382.925c-90.611-67.763-109.939-196.019-42.842-287.424c 67.072-91.392, 195.2-111.45, 287.014-45.325L 126.592,382.925zM 155.571,398.118C 237.21,456.832, 346.624,445.133, 409.613,359.296l-146.586-107.584L 155.571,398.118zM 435.136,329.869c 62.157-86.234, 40.371-194.701-40.858-254.323l-107.021,145.83L 435.136,329.869z"  />
<glyph unicode="&#xe009;" d="M 452.531,361.242c-3.942,25.011-17.395,46.976-37.888,61.85C 398.31,435.034, 378.982,441.344, 358.784,441.344
	c-30.234,0-58.931-14.528-76.736-38.861L 79.13,124.122c-11.763-15.974-16.55-35.546-13.53-55.13c 3.034-19.597, 13.568-36.826, 29.606-48.499
	c 12.8-9.331, 27.917-14.272, 43.699-14.272c 23.667,0, 46.131,11.418, 60.083,30.528l 158.221,216.998c 8.474,11.622, 11.891,25.83, 9.613,40
	c-2.266,14.042-9.856,26.33-21.35,34.573c-9.267,6.81-20.186,10.406-31.603,10.406c-16.998,0-33.126-8.218-43.136-21.99l-103.68-142.4
	l-1.024-1.408l 19.52-14.234l 104.768,143.782c 5.542,7.539, 14.464,12.045, 23.872,12.045c 6.17,0, 12.096-1.907, 17.114-5.491
	c 6.285-4.557, 10.419-11.328, 11.648-19.098c 1.254-7.846-0.64-15.68-5.286-22.067L 179.494,50.906l-0.717-1.062
	c-9.459-12.211-24.23-19.469-39.744-19.469c-10.637,0-20.774,3.315-29.338,9.562c-22.246,16.499-27.059,47.872-10.714,69.965L 301.696,388.211
	c 13.274,18.202, 34.752,29.056, 57.408,29.056c 15.027,0, 29.376-4.646, 41.51-13.44c 31.488-23.014, 38.426-67.443, 15.462-99.021l-147.456-202.163l-1.024-1.395
	l 19.469-14.182l 148.365,203.52C 450.419,311.091, 456.474,336.192, 452.531,361.242z"  />
<glyph unicode="&#xe00a;" d="M 281.779,454.221l-38.643,0 c0-108.262,0-328.282,0-328.282
		c-60.019,27.302-130.342-9.267-142.054-63.501c-3.763-17.651, 4.109-36.762, 11.43-45.504c 41.062-49.050, 130.624-26.189, 171.84,26.547
		c 18.291,23.411, 16.768,43.827, 16.768,93.965c0,68.058,0,133.197,0,200.909c 25.293-18.816, 53.85-36.339, 64.102-69.952
		c 6.349-20.877-2.099-55.603-8.832-73.331c-2.022-5.312-7.667-9.818-5.056-15.142c 17.728-13.171, 26.483,14.822, 31.539,26.534
		c 5.555,12.672, 10.829,28.378, 12.659,39.181C 415.36,361.562, 292.186,365.965, 281.779,454.221z"  />
<glyph unicode="&#xe00b;" d="M 283.302,325.338A32.538,32.538 180 1 1 348.378,325.33799999999997A32.538,32.538 180 1 1 283.302,325.33799999999997zM 353.178,244.352L 305.242,196.416L 209.382,292.288L 113.485,196.416L 113.485,100.557L 401.075,100.557L 401.075,196.416 		zM 473.6,14.221L 46.208,14.221 L 46.208,450.854 L 473.6,450.854 L 473.6,14.221 z M 65.894,33.92l 388.006,0 L 453.901,431.155 L 65.894,431.155 L 65.894,33.92 z"  />
<glyph unicode="&#xe00c;" d="M 61.786,239.629L 133.606,239.629L 133.606,21.325L 61.786,21.325zM 397.862,239.629L 469.696,239.629L 469.696,21.35L 397.862,21.35zM 171.84,359.373L 243.635,359.373L 243.635,21.325L 171.84,21.325zM 285.978,434.189L 357.786,434.189L 357.786,21.325L 285.978,21.325z"  />
<glyph unicode="&#xe00d;" d="M 331.008,263.59L 331.008,394.906 l 22.118,0 L 353.126,429.888 L 163.366,429.888 l0-34.982 l 20.288,0 l0-131.763 c-45.107-10.803-75.533-31.066-75.533-54.31
		c0-0.614, 0.166-1.254, 0.205-1.843l 299.853,0 c 0.051,0.589, 0.23,1.229, 0.23,1.843C 408.384,232.41, 377.139,252.902, 331.008,263.59zM 243.187,191.821l 31.078,0 l-0.448-158.349c0,0-0.909-16.333-12.902-16.589c-17.011-0.294-16.563,16.589-16.563,16.589
		L 243.187,191.821z"  />
<glyph unicode="&#xe00e;" d="M 393.114,159.347L 393.229,29.171L 100.288,29.171L 100.582,307.456L 212.006,307.456L 212.006,418.842L 392.87,418.842L 392.87,377.523L 412.365,403.341L 412.365,438.323L 199.155,438.323L 81.139,321.421L 80.768,9.677L 412.71,9.677L 412.544,184.102 	zM 149.21,206.771L 149.21,187.302L 270.989,187.302L 271.117,206.771 	zM 149.21,274.253L 149.21,254.771L 291.93,254.771L 292.109,274.253 	zM 149.21,140.301L 149.21,120.819L 262.464,120.819L 262.592,140.096 	zM 423.808,384.346L 417.92,376.538L 398.438,350.72L 336.589,268.749L 321.869,249.254L 301.363,222.042L 298.701,201.28L 296.192,181.773L 290.138,134.579L 374.758,166.080L 398.605,196.378L 418.022,221.133L 499.2,324.326 	z"  />
<glyph unicode="&#xe00f;" d="M 155.251,288.717L 354.611,288.717L 354.611,268.595L 155.251,268.595zM 155.251,218.995L 354.611,218.995L 354.611,198.874L 155.251,198.874zM 155.251,150.298L 354.611,150.298L 354.611,130.176L 155.251,130.176zM 427.149,458.266L 206.835,458.266 l-121.946-120.806l-0.384-322.138l 343.002,0  M 407.373,35.456L 104.678,35.456 l 0.307,287.59l 115.123,0 L 220.109,438.131 
		l 186.906,0 "  />
<glyph unicode="&#xe010;" d="M 168.755,234.317c 5.645,9.114, 12.749,18.15, 21.261,27.085c 8.512,8.947, 18.79,16.986, 30.81,24.166
		c 12.019,7.206, 23.603,13.184, 39.578,17.933c 16,4.787, 34.33,7.616, 54.989,8.563L 315.392,391.437 l 157.325-122.483l-157.325-120.678l0,87.654 
		c-5.222,0-12.147-0.166-20.749-0.499c-8.602-0.32-18.15-1.28-28.685-2.829c-10.56-1.536-19.226-3.853-30.835-6.963
		c-11.61-3.085-23.027-7.373-34.24-12.864c-11.213-5.542-21.76-11.597-31.629-19.866c-9.869-8.269-18.355-18.394-25.472-30.298
		C 147.136,189.44, 155.456,212.826, 168.755,234.317zM 372.621,136.064l0-30.669 L 100.864,105.395 L 100.864,291.315 l 50.931,0 c 1.472,5.274, 3.52,10.189, 7.194,14.029
		c 4.864,5.107, 10.227,9.958, 15.898,14.592L 72.269,319.936 l0-243.136 l 328.96,0 l0,79.386 L 372.621,136.064z"  />
<glyph unicode="&#xe011;" d="M 286.067,252.518L 286.067,252.531L 285.555,227.174 	zM 247.258,201.818L 247.258,201.766L 246.707,227.174 	zM 469.184,92.723l-59.162,102.477c-15.232,26.394-40.166,69.568-55.398,95.949l-59.174,102.49
		c-15.219,26.381-40.154,26.381-55.386,0l-59.174-102.49c-15.232-26.394-40.166-69.568-55.398-95.949l-59.174-102.477
		c-15.232-26.394-2.765-47.974, 27.699-47.974l 118.336,0 c 30.464,0, 80.32,0, 110.784,0l 118.349,0 C 471.949,44.749, 484.429,66.342, 469.184,92.723z
		 M 285.875,99.75l0-18.854 l-19.648,0 l-19.674,0 l0,18.854 l0,18.867 l 19.674,0 l 19.648,0 L 285.875,99.75 z M 286.067,252.518l-0.512-25.331l-1.587-80.742l-17.741,0 l-17.766,0 
		l-1.203,55.322c0,0.013,0,0.038,0,0.051l-0.55,25.357l-1.754,80.717l 21.094,0 l 21.094,0 l-1.088-55.347
		C 286.067,252.531, 286.067,252.531, 286.067,252.518z"  />
<glyph unicode="&#xe012;" d="M 216,41.971L 50.048,251.994L 113.562,302.182L 217.792,170.278L 408.128,397.824L 470.221,345.882 z"  />
<glyph unicode="&#xe013;" d="M 146.15,371.046c0-23.117-17.062-41.843-45.133-41.843c-26.406,0-43.469,18.726-43.469,41.843
		c0,23.667, 17.613,41.83, 44.57,41.83S 145.6,394.714, 146.15,371.046z M 59.738,27.072L 59.738,296.205 l 83.661,0 l0-269.12 L 59.738,27.085 zM 193.907,296.205l 73.997-0.192l-0.154-37.235l 1.651,0 c 10.995,17.613, 37.978,43.469, 83.098,43.469
		c 55.040,0, 96.307-36.864, 96.307-116.109l0-159.066 l-83.648,0 L 365.158,176.23 c0,34.675-12.109,58.33-42.394,58.33c-23.117,0-36.864-15.949-42.918-31.36
		c-2.214-5.504-2.765-13.197-2.765-20.915l0-155.2 l-83.648,0 L 193.907,296.205z"  />
<glyph unicode="&#xe014;" d="M 100.685,224.013L 256,313.664L 411.315,403.341L 411.315,224.013L 411.315,44.646L 256,134.349 z"  />
<glyph unicode="&#xe015;" d="M 388.646,416l-106.394,0 c-27.891,0-62.989-4.122-92.416-28.352c-22.234-19.085-33.050-45.376-33.050-69.12
	c0-40.218, 30.989-81.011, 85.722-81.011c 5.158,0, 10.816,0.512, 16.538,1.037c-2.586-6.157-5.21-11.341-5.21-20.122
	c0-15.987, 8.269-25.779, 15.488-35.072c-23.194-1.523-66.598-4.122-98.624-23.706c-30.464-18.086-39.782-44.378-39.782-62.95
	c0-38.157, 36.16-73.805, 111.040-73.805c 88.819,0, 135.834,49.024, 135.834,97.549c0,35.533-20.672,53.107-43.392,72.205l-18.586,14.451
	c-5.67,4.634-13.414,10.803-13.414,22.17c0,11.354, 7.731,18.586, 14.451,25.293c 21.658,17.011, 43.392,35.046, 43.392,73.242
	c0,39.206-24.819,59.853-36.685,69.658l 32.038,0 L 388.646,416z M 343.245,100.301c0-31.974-26.368-55.706-75.955-55.706c-55.245,0-90.893,26.317-90.893,62.899
	c0,36.672, 33.062,49.011, 44.403,53.146c 21.696,7.219, 49.587,8.243, 54.208,8.243c 5.171,0, 7.757,0, 11.917-0.486
	C 326.195,140.557, 343.245,126.605, 343.245,100.301z M 301.914,266.419c-8.269-8.256-22.234-14.438-35.136-14.438
	c-44.403,0-64.525,57.254-64.525,91.814c0,13.427, 2.573,27.341, 11.341,38.182c 8.269,10.304, 22.72,17.024, 36.16,17.024
	c 42.854,0, 65.075-57.792, 65.075-94.938C 314.829,294.784, 313.779,278.31, 301.914,266.419z"  />
<glyph unicode="&#xe016;" d="M 357.952,345.869l-61.171,0 c-7.219,0-15.322-9.498-15.322-22.234l0-44.173 l 76.506,0 l0-62.95 l-76.506,0 l0-189.069 l-72.192,0 L 209.267,216.499 
	l-65.459,0 l0,62.95 l 65.459,0 l0,37.056 c0,53.146, 36.877,96.371, 87.514,96.371l 61.171,0 L 357.952,345.869 z"  />
<glyph unicode="&#xe017;" d="M 411.315,223.987L 256,134.323L 100.685,44.646L 100.685,223.987L 100.685,403.354L 256,313.651 z"  />
<glyph unicode="&#xe018;" d="M 99.187,223.987A34.445,34.445 180 1 1 168.077,223.98700000000002A34.445,34.445 180 1 1 99.187,223.98700000000002zM 222.49,223.974A34.445,34.445 180 1 1 291.379,223.974A34.445,34.445 180 1 1 222.49,223.974zM 343.91,223.974A34.445,34.445 180 1 1 412.8,223.974A34.445,34.445 180 1 1 343.91,223.974z"  />
<glyph unicode="&#xe019;" d="M 249.882,173.85L 150.003,408.179L 96.064,408.179 L 72.781,95.002c-0.512-7.347-4.186-11.52-11.52-11.52L 41.6,83.482 l0-45.030 l 44.749,0 
			c 24.102,0, 32.474,9.92, 34.048,33.523l 17.574,250.317l 1.024,0 l 79.654-180.723L 249.882,173.85zM 255.68,167.475l 106.33,241.395l 53.926,0 l 23.283-313.19c 0.525-7.322, 4.198-11.494, 11.533-11.494l 19.648,0 l0-45.056 l-44.749,0 
		c-24.102,0-32.474,9.946-34.048,33.523l-17.574,250.33l-1.050,0 l-81.549-184.883c0,0-9.459,5.67-19.75,5.094
		c-9.178-0.499-24.102-20.070-29.67-19.93c-6.374,0.179-19.456,6.374-19.456,6.374l-1.254,2.573L 255.68,167.475zM 226.15,119.706l 8.333-17.37l 41.933-0.23l 12.288,27.328c0,0-8.090,4.646-15.142,4.25
		c-7.974-0.448-24.051-19.699-30.822-19.93C 235.981,113.549, 226.15,119.706, 226.15,119.706z"  />
<glyph unicode="&#xe01a;" d="M 371.046,403.635L 256.87,289.446L 140.941,405.389L 74.842,339.29L 190.771,223.347L 76.147,108.723L 142.246,42.611L 256.87,157.235L 369.754,44.365L 435.853,110.464L 322.97,223.334L 437.158,337.536 z"  />
<glyph unicode="&#xe01b;" d="M 255.526,430.618C 139.648,430.618, 45.696,336.678, 45.696,220.8c0-115.891, 93.939-209.843, 209.83-209.843
		c 115.866,0, 209.818,93.952, 209.818,209.843C 465.344,336.678, 371.405,430.618, 255.526,430.618z M 342.106,106.547c-4.262-4.262-9.856-6.4-15.424-6.4
		c-5.606,0-11.174,2.138-15.424,6.4l-88.883,88.87L 222.374,359.718 c0,12.058, 9.766,21.824, 21.837,21.824s 21.824-9.766, 21.824-21.824L 266.035,213.504 l 76.070-76.070
		C 350.643,128.883, 350.643,115.072, 342.106,106.547z"  />
<glyph unicode="&#xe01c;" d="M 145.843,136.371c-49.165,28.314-79.718,80.538-79.718,136.282c0,56.077, 30.81,108.467, 80.422,136.717
			c 6.131,3.494, 8.282,11.328, 4.8,17.459c-3.366,5.888-11.533,8.141-17.459,4.787C 76.288,398.835, 40.525,337.92, 40.525,272.653
			c0-64.87, 35.456-125.594, 92.531-158.464c 1.946-1.126, 4.147-1.715, 6.387-1.715c 4.57,0, 8.819,2.458, 11.098,6.413
			C 154.061,125.005, 151.949,132.838, 145.843,136.371zM 182.029,359.795c-31.706-18.048-51.392-51.584-51.392-87.552c0-35.725, 19.507-69.158, 50.931-87.283
			c 1.933-1.114, 4.147-1.702, 6.387-1.702c 4.557,0, 8.806,2.458, 11.098,6.413c 3.52,6.118, 1.408,13.952-4.698,17.485
			c-23.501,13.555-38.118,38.502-38.118,65.088c0,26.778, 14.733,51.802, 38.451,65.306c 2.97,1.69, 5.094,4.442, 6.003,7.731
			c 0.909,3.302, 0.474,6.746-1.216,9.728C 196.096,360.909, 187.994,363.174, 182.029,359.795zM 387.622,431.629c-5.952,3.379-14.118,1.101-17.459-4.787c-3.494-6.131-1.344-13.965, 4.8-17.459
			c 49.6-28.25, 80.41-80.627, 80.41-136.717c0-55.744-30.541-107.968-79.706-136.294c-6.106-3.52-8.218-11.366-4.698-17.485
			c 2.278-3.955, 6.528-6.4, 11.098-6.4c 2.227,0, 4.442,0.576, 6.387,1.702c 57.050,32.883, 92.518,93.606, 92.518,158.477
			C 480.96,337.933, 445.197,398.835, 387.622,431.629zM 339.469,359.795c-5.952,3.392-14.106,1.101-17.459-4.787c-3.494-6.131-1.344-13.965, 4.8-17.459
			c 23.718-13.504, 38.451-38.515, 38.451-65.306c0-26.598-14.605-51.533-38.118-65.101c-6.106-3.52-8.218-11.366-4.698-17.485
			c 2.278-3.955, 6.528-6.4, 11.098-6.4c 2.24,0, 4.454,0.589, 6.387,1.702c 31.411,18.125, 50.931,51.558, 50.931,87.283
			C 390.861,308.211, 371.174,341.76, 339.469,359.795zM 278.259,234.33c 10.637,6.195, 17.869,17.6, 17.869,30.784c0,19.738-16,35.75-35.738,35.75
		c-19.738,0-35.75-16-35.75-35.75c0-13.197, 7.232-24.589, 17.869-30.784l0-112.205 c0-35.75-35.738-125.107-35.738-125.107l 107.238,0 
		c0,0-35.738,89.357-35.738,125.107L 278.272,234.33 z"  />
<glyph unicode="&#xe01d;" d="M 472.55,201.395l0,56.589 l-53.453,0 c-4.25,24.614-13.901,47.373-27.776,67.008l 37.837,37.811L 389.133,402.816l-37.811-37.824
	c-19.648,13.875-42.394,23.526-67.046,27.789L 284.275,451.443 l-56.55,0 l0-58.637 c-24.64-4.262-47.373-13.901-67.021-27.776L 122.867,402.829L 82.88,362.803
	l 37.824-37.798c-13.901-19.648-23.539-42.394-27.802-67.021L 39.45,257.984 l0-56.589 l 53.453,0 c 4.262-24.627, 13.901-47.386, 27.802-67.021l-37.824-37.798
	l 40.026-40.026l 37.811,37.811c 19.635-13.862, 42.394-23.514, 67.008-27.763l0-48.256 l 56.55,0 l0,48.256 c 24.653,4.262, 47.386,13.901, 67.034,27.776l 37.786-37.837
	l 40.026,40.038l-37.811,37.798c 13.875,19.648, 23.539,42.394, 27.789,67.021L 472.55,201.395 z M 255.974,129.459c-55.245,0-100.198,44.979-100.198,100.224
	c0,55.27, 44.954,100.237, 100.198,100.237c 55.283,0, 100.25-44.966, 100.25-100.237C 356.224,174.426, 311.258,129.459, 255.974,129.459z"  />
<glyph unicode="&#xe01e;" d="M 450.214,84.518l-92.89,92.877c 16.883,26.854, 26.842,58.496, 26.842,92.57c0,96.154-77.952,174.106-174.131,174.106
		c-96.154,0-174.106-77.952-174.106-174.106c0-96.179, 77.952-174.131, 174.106-174.131c 34.048,0, 65.728,9.946, 92.57,26.842l 92.877-92.89
		c 7.552-7.565, 17.446-11.341, 27.366-11.341c 9.894,0, 19.802,3.776, 27.366,11.341C 465.331,44.902, 465.331,69.402, 450.214,84.518z M 93.978,269.965
		c0,64, 52.058,116.058, 116.058,116.058c 64.013,0, 116.070-52.058, 116.070-116.058c0-64.013-52.058-116.070-116.070-116.070
		C 146.035,153.882, 93.978,205.952, 93.978,269.965z"  />
<glyph unicode="&#xe01f;" d="M 383.706,192.384c-6.502-61.658-60.429-108.147-125.414-108.147c-47.552,0-90.086,25.126-111.859,65.818l 52.070,52.070L 59.891,202.125 
		l0-138.598 l 43.597,43.584c 34.65-50.509, 92.070-80.512, 154.79-80.512c 96.922,0, 178.355,72.435, 185.382,164.928l 0.384,5.171l-59.878,0 L 383.706,192.384zM 259.277,421.798c-96.922,0-178.355-72.41-185.37-164.89l-0.397-5.158l 59.866,0 l 0.461,4.314
		c 6.528,61.632, 60.454,108.096, 125.44,108.096c 45.875,0, 87.706-23.731, 110.003-62.208l-50.202-50.202l 138.598,0 L 457.677,390.349 l-45.824-45.837
		C 376.922,393.050, 320.32,421.798, 259.277,421.798z"  />
<glyph unicode="&#xe020;" d="M 423.053,149.030c-4.211,1.805-8.845,1.882-13.094,0.192c-4.262-1.69-7.603-4.941-9.421-9.165
	c-5.069-11.814-11.251-22.72-18.406-32.448c-53.12-72.090-154.97-87.526-227.046-34.419S 67.546,228.122, 120.653,300.211
	c 47.168,64.026, 134.63,84.058, 205.005,47.757l-95.667-95.667l 225.382-26.278L 432.858,455.194l-81.792-81.805c-39.232,23.168-83.866,31.808-129.165,24.922
	c-51.942-7.872-97.69-35.494-128.832-77.786c-31.117-42.227-43.904-94.106-36.006-146.099c 7.885-51.981, 35.469-97.741, 77.696-128.87
	c 30.246-22.272, 65.997-35.354, 103.398-37.824c 4.429-0.269, 8.832-0.422, 13.222-0.422c 62.566,0, 121.011,29.274, 158.349,79.974
	c 8.678,11.789, 16.179,24.998, 22.285,39.232C 435.725,135.194, 431.706,145.306, 423.053,149.030z"  />
<glyph unicode="&#xe021;" d="M 214.118,166.195c0,82.816, 94.221,95.949, 94.221,154.765c0,26.867-23.987,47.398-55.398,47.398
		c-32.538,0-61.094-23.962-61.094-23.962l-39.987,49.69c0,0, 39.411,41.101, 107.366,41.101c 64.538,0, 124.506-39.974, 124.506-107.354
		c0-94.234-99.379-105.088-99.379-166.758l0-22.272 l-70.234,0 L 214.118,166.195 z M 214.118,89.101l 70.234,0 l0-67.379 l-70.234,0 L 214.118,89.101 z"  />
<glyph unicode="&#xe022;" d="M 369.229,39.194c-7.104,5.286-17.498,28.314-21.619,37.594c-2.099,4.723-12.352,26.266-12.198,43.533
	c 13.005,18.573, 18.419,29.658, 21.99,39.91c 4.288,12.326, 9.011,32.064, 10.368,36.544c 1.344,4.48, 10.931,6.042, 17.459,14.797
	c 7.411,9.946, 12.557,45.005, 12.557,51.686c0,9.523-9.472,18.547-14.72,18.304c-2.394-0.128-1.702,4.032-1.702,11.059
	c0,8.064-0.41,18.944-0.589,23.014c-0.32,7.629-4.134,39.526-10.24,60.058c-7.731,27.827-48.154,65.6-104.576,65.6
	c-56.307,0-97.101-36.621-104.832-65.6c-6.144-20.48-9.459-60.058-9.459-60.058s-0.832-16.32-0.806-25.907c0-2.522, 0.294-10.022-0.794-9.728
	c-4.928,1.344-15.923-7.475-15.923-16.23c0-7.194, 3.597-41.741, 13.082-52.198c 7.347-8.115, 16.102-10.33, 17.472-14.81
	c 1.344-4.493, 6.822-25.6, 10.355-37.568c 6.694-22.669, 15.987-37.376, 37.645-54.093c 12.685-9.779, 34.688-14.784, 44.262-14.938
	c 9.574-0.166, 25.19-0.704, 34.010,1.126c-26.662-12.518-80.589-12.634-95.923,5.030c-1.984,2.278-4.032,4.8-6.118,7.475
	c-3.2-7.552-12.723-44.134-29.581-63.846c 1.101-2.534, 57.267-20.877, 96.576-20.877C 288,19.072, 366.298,30.579, 369.229,39.194z"  />
<glyph unicode="&#xe023;" d="M 443.098,293.44l-42.867,0 c-4.186,27.098-25.216,55.782-49.421,80.218
	c-25.818,25.088-53.67,45.197-76.557,47.936c-1.242,0.179-2.483,0.282-3.955,0.307L 110.899,421.901 l0-128.461 l-41.984,0 c-22.336,0-40.461-18.125-40.461-40.461
	L 28.454,73.472 l 82.406,0 l 0.026-50.931L 400.896,22.541 l 0.256,50.931l 82.381,0 L 483.533,252.979 C 483.546,275.302, 465.446,293.44, 443.098,293.44z M 379.226,44.224L 132.736,44.224 L 132.736,103.808 
	l 246.49,0 L 379.226,44.224 z M 379.226,257.088c0,0.589,0,6.003,0,6.003l-2.56,0 L 132.736,263.091 L 132.736,400.013 l 137.664,0 l0,0c 6.208,0.371, 11.482-2.086, 15.552-16.038
	c 3.738-13.235, 4.646-30.515, 4.646-42.496c 0.038-8.794-0.371-14.707-0.371-14.707l-0.755-9.677l 9.702-0.077c 0.051,0, 22.413-0.32, 44.416-5.248
	c 21.094-4.608, 33.856-13.696, 35.558-23.987c 0.090-0.909, 0.090-1.869, 0.090-2.675L 379.238,257.088 z"  />
<glyph unicode="&#xe024;" d="M 224.333,440.973l 78.016,0 L 296.448,142.502l-65.613,0 L 224.333,440.973z M 227.29,91.072l 72.717,0 l0-69.734 l-72.717,0 L 227.29,91.072 z"  />
<glyph unicode="&#xe025;" d="M 378.586,441.574L 148.8,441.574 c-16.922,0-30.643-13.722-30.643-30.656l0-352.333 c0-16.922, 13.722-30.643, 30.643-30.643l 229.798,0 
	c 16.922,0, 30.643,13.709, 30.643,30.643L 409.242,410.931 C 409.229,427.853, 395.507,441.574, 378.586,441.574z M 291.994,56.922c0-4.698-3.814-8.499-8.486-8.499
	l-39.616,0 c-4.698,0-8.499,3.802-8.499,8.499L 235.392,90.88 c0,4.685, 3.802,8.474, 8.499,8.474l 39.616,0 c 4.672,0, 8.486-3.789, 8.486-8.474L 291.994,56.922 z
	 M 382.157,119.872L 145.229,119.872 L 145.229,413.837 l 236.941,0 L 382.17,119.872 z"  />
<glyph unicode="&#xe026;" d="M 43.008,342.464L 43.008,104.013L 176.41,229.466 	zM 469.197,367.552l 0.794,0 C 468.096,368.653, 465.92,369.318, 463.578,369.318L 56.013,369.318 c-2.675,0-5.171-0.806-7.232-2.202
		l 209.946-178.79L 469.197,367.552zM 258.726,158.848l-67.213,54.042L 53.645,83.392c 0.768-0.154, 1.562-0.243, 2.368-0.243l 407.565,0 
		c 0.154,0, 0.282,0.038, 0.422,0.038L 325.926,212.89L 258.726,158.848zM 341.030,229.466L 476.57,102.003L 476.57,344.282 	z"  />
<glyph unicode="&#xe027;" d="M 438.438,275.763c0,98.752-80.051,178.816-178.803,178.816c-98.765,0-178.816-80.051-178.816-178.816
	c0-82.138, 55.462-151.168, 130.931-172.134l 47.885-91.584l 44.032,90.598C 381.082,122.304, 438.438,192.256, 438.438,275.763z M 351.898,255.36l-72.55,0 l0-76.928 
	l-42.982,0 l0,76.928 l-72.563,0 l0,41.19 l 72.563,0 L 236.365,372.378 l 42.982,0 l0-75.827 l 72.55,0 L 351.898,255.36 z"  />
<glyph unicode="&#xe028;" d="M 91.93,32.294L 444.992,32.294L 444.992,11.2L 91.93,11.2zM 320.115,444.058L 388.89,390.682L 342.17,330.509L 273.408,383.885zM 328.858,313.318L 260.083,366.694L 93.274,151.782L 93.338,151.731L 93.261,151.782L 74.266,56.32L 162.035,98.406L 161.984,98.445L 162.048,98.406 	z"  />
<glyph unicode="&#xe029;" d="M 340.518,430.784L 31.027,430.784 l0-370.509 l 228.416,0 l-14.886,22.080L 53.094,82.355 L 53.094,408.704 l 69.414,0 l0-151.731 L 296.32,256.973 L 296.32,408.704 l 29.018,0 l 54.131-50.483
		l0-64.653 l 22.054,0 L 401.523,369.741 L 340.518,430.784z M 264.32,275.418l-36.595,0 L 227.725,412.339 l 36.595,0 L 264.32,275.418 zM 401.536,151.757L 401.536,256.973L 319.194,256.973L 319.194,151.757L 232.294,151.757L 360.384,9.958L 488.448,151.757 
			z"  />
<glyph unicode="&#xe02a;" d="M 479.296,162.995c0-26.931-21.85-48.717-48.755-48.717L 229.606,114.278 l-44.634-73.075l-40.627,73.075L 81.421,114.278 
	c-26.893,0-48.73,21.786-48.73,48.717L 32.691,357.862 c0,26.918, 21.837,48.704, 48.73,48.704l 349.12,0 c 26.906,0, 48.755-21.798, 48.755-48.704L 479.296,162.995 z"  />
<glyph unicode="&#xe02b;" d="M 142.886,279.322L 196.224,279.322L 196.224,230.195L 142.886,230.195zM 229.018,279.334L 282.355,279.334L 282.355,230.208L 229.018,230.208zM 314.035,279.322L 367.36,279.322L 367.36,230.195L 314.035,230.195zM 143.437,204.659L 196.774,204.659L 196.774,155.533L 143.437,155.533zM 229.581,204.672L 282.918,204.672L 282.918,155.546L 229.581,155.546zM 314.598,204.659L 367.936,204.659L 367.936,155.533L 314.598,155.533zM 144,129.997L 197.338,129.997L 197.338,80.87L 144,80.87zM 230.131,130.010L 283.469,130.010L 283.469,80.896L 230.131,80.896zM 315.149,129.997L 368.486,129.997L 368.486,80.87L 315.149,80.87zM 422.144,427.405L 89.856,427.405 c-33.229,0-49.165-14.221-49.165-44.006l0-322.138 c0-29.773, 15.949-40.666, 49.165-40.666L 422.144,20.595 
		c 33.229,0, 49.178,14.221, 49.178,44.006L 471.322,383.398 C 471.322,413.184, 455.373,427.405, 422.144,427.405z M 422.144,41.869L 89.856,41.869 c-22.438,0-25.984,2.675-25.984,22.746
		L 63.872,323.277 l 384.269,0 l0-258.662 C 448.141,44.531, 444.595,41.869, 422.144,41.869z"  />
<glyph unicode="&#xe02c;" d="M 426.189,417.69L 102.618,417.69 c-13.005,0-23.539-10.534-23.539-23.539l0-36.544 L 64.218,357.606 c-6.694,0-12.16-8.384-12.16-18.778
	c0-10.33, 5.453-18.739, 12.16-18.739l 14.861,0 l0-70.771 L 64.218,249.318 c-6.694,0-12.16-8.384-12.16-18.739c0-10.381, 5.453-18.752, 12.16-18.752l 14.861,0 l0-70.477 
	L 64.218,141.35 c-6.694,0-12.16-8.41-12.16-18.778c0-10.342, 5.453-18.752, 12.16-18.752l 14.861,0 l0-33.267 c0-12.992, 10.534-23.526, 23.539-23.526l 323.571,0 
	c 13.018,0, 23.539,10.534, 23.539,23.526L 449.728,394.15 C 449.728,407.155, 439.194,417.69, 426.189,417.69z M 151.654,84.109c-14.17,0-26.47,7.962-32.922,19.712
	l 14.131,0 c 6.707,0, 12.122,8.41, 12.122,18.752c0,10.368-5.414,18.778-12.122,18.778L 118.72,141.35 c 6.451,11.75, 18.752,19.712, 32.934,19.712
	c 20.8,0, 37.683-17.242, 37.683-38.464C 189.338,101.35, 172.467,84.109, 151.654,84.109z M 151.654,192.115c-14.17,0-26.496,7.949-32.947,19.712l 14.157,0 
	c 6.707,0, 12.122,8.371, 12.122,18.752c0,10.355-5.414,18.739-12.122,18.739L 118.72,249.318 c 6.451,11.763, 18.765,19.712, 32.934,19.712
	c 20.8,0, 37.683-17.203, 37.683-38.451C 189.338,209.318, 172.467,192.115, 151.654,192.115z M 151.654,300.378c-14.17,0-26.483,7.962-32.934,19.712
	l 14.157,0 c 6.707,0, 12.122,8.41, 12.122,18.739c0,10.394-5.414,18.778-12.122,18.778L 118.733,357.606 c 6.451,11.75, 18.752,19.712, 32.922,19.712
	c 20.8,0, 37.683-17.254, 37.683-38.49S 172.467,300.378, 151.654,300.378z"  />
<glyph unicode="&#xe03b;" d="M 462.451,267.2L 300.979,267.2L 300.979,431.155L 207.488,431.155L 207.488,267.2L 45.389,267.2L 45.389,173.709L 207.488,173.709L 207.488,14.080L 300.979,14.080L 300.979,173.709L 462.451,173.709 z"  />
<glyph unicode="&#xe03d;" d="M 378.406,440.051L 133.568,440.051 c-19.802,0-36.006-16.205-36.006-36.019l0-360.077 c0-19.802, 16.205-35.994, 36.006-35.994l 244.838,0 
		c 19.814,0, 36.006,16.205, 36.006,35.994L 414.413,404.032 C 414.426,423.859, 398.221,440.051, 378.406,440.051z M 256,20.301c-6.003,0-10.842,4.851-10.842,10.829
		c0,6.029, 4.851,10.88, 10.842,10.88s 10.842-4.851, 10.842-10.88C 266.842,25.152, 261.978,20.301, 256,20.301z M 386.547,53.005L 125.453,53.005 L 125.453,408.474 l 261.094,0 
		L 386.547,53.005 z"  />
<glyph unicode="&#xe03e;" d="M 475.507,234.79c0,35.866-23.232,66.291-55.488,77.069c-2.598,19.354-18.79,46.131-41.229,67.418
	c-22.605,21.414-61.107,46.95-116.352,46.95c-96.243,0-145.024-78.797-150.464-114.317c-32.294-10.765-55.603-41.203-55.603-77.107
	c0-44.89, 36.39-81.28, 81.28-81.28L 137.651,306.048 l 0.653-0.038c 1.037,21.734, 41.754,93.338, 124.134,93.338c 83.379,0, 131.123-72.845, 131.123-92.698L 394.24,306.65 
	l0-145.382 c-20.442-51.021-72.179-81.869-91.942-85.235c-4.147,8.486-12.826,14.349-22.925,14.349c-14.093,0-25.51-11.43-25.51-25.523
	s 11.43-25.523, 25.51-25.523c 10.406,0, 19.341,6.221, 23.322,15.155c 30.72,3.251, 89.869,42.816, 112.448,101.76
	C 449.894,165.466, 475.507,197.12, 475.507,234.79z"  />
<glyph unicode="&#xe03f;" d="M 66.611,387.315c-14.771-18.406-47.539-106.15, 92.864-249.779c 147.93-151.373, 243.354-118.976, 259.776-101.926
			l-98.906,98.752c-13.824-13.798-31.629-1.523-65.792,26.278c-22.566,18.381-48.589,43.098-71.155,71.014c-15.821,19.546-29.837,40.090-15.373,54.541
			L 66.611,387.315zM 455.002,70.938c 6.413,6.426, 5.76,16.179-0.051,22.029l0,0.102 c0,0-77.171,76.928-77.21,76.954
			c-6.106,6.106-15.885,5.952-21.939-0.026l-27.994-28.019l 99.149-98.97c0,0, 28.006,27.904, 27.994,27.93L 455.002,70.938zM 203.674,321.779c 6.413,6.438, 5.824,16.179,0,21.99l0,0.115 c0,0-79.386,79.117-79.424,79.168
			C 118.131,429.158, 108.352,429.005, 102.31,422.989L 74.317,395.008l 101.363-101.171c0,0, 27.994,27.866, 27.994,27.891L 203.674,321.779 z"  />
<glyph unicode="&#xe040;" d="M 43.059,325.286l0-214.707 l 66.726,0 L 109.786,325.286 L 43.059,325.286 z M 84.25,123.904c-7.373,0-13.35,6.003-13.35,13.376
			c0,7.347, 5.978,13.35, 13.35,13.35c 7.373,0, 13.35-6.003, 13.35-13.35C 97.6,129.894, 91.622,123.904, 84.25,123.904zM 402.202,325.286l0-214.707 l 66.739,0 L 468.941,325.286 L 402.202,325.286 z M 428.698,124.506c-7.36,0-13.35,5.978-13.35,13.35
			s 5.99,13.325, 13.35,13.325c 7.373,0, 13.35-5.952, 13.35-13.325S 436.070,124.506, 428.698,124.506zM 126.963,182.605c 2.496,0, 4.979-0.346, 7.36-1.050c 2.573-0.781, 7.706-5.747, 26.765-25.126
			c 19.776-20.122, 52.89-53.798, 61.696-55.475c 2.112-0.397, 8.41-2.995, 15.872-0.819c 7.654,2.253, 12.211,10.278, 12.211,10.278
			s 10.458-11.123, 23.309-8.154c 15.514,3.597, 16.947,15.398, 16.947,15.398s 11.75-8.32, 25.549-2.304c 10.79,4.723, 10.099,18.522, 10.099,18.522
			s 11.891-10.074, 24.998-4.275c 14.285,6.298, 9.51,28.096, 4.378,33.997c-13.888,16.026-92.109,99.738-101.978,110.272
			c-19.43-12.237-62.515-38.835-70.272-38.835c-9.178,0-17.728,5.722-24.742,16.55c-7.117,11.021-8.32,20.851-3.494,28.416
			c 2.432,3.827, 16.448,16.269, 39.821,36.467l 1.101,0.947c 1.779,1.536, 3.418,2.957, 4.774,4.134c-1.92-0.192-4.045-0.87-6.080-1.971
			c-2.637-1.408-10.995-6.861-19.085-12.122c-26.995-17.574-38.848-24.973-42.432-25.37c-2.778-0.307-5.568-0.512-7.603-0.64l0-98.829 
			C 126.413,182.605, 126.682,182.605, 126.963,182.605zM 359.578,181.274c 0.998-0.051, 3.61-0.154, 9.28-0.154c 6.566,0, 14.451,0.128, 18.726,0.205l0,100.301 
			c-1.446-0.128-3.2-0.243-5.056-0.243c-2.765,0-5.21,0.256-7.27,0.73c-2.829,0.691-15.821,8.307-47.078,26.893
			c-24.269,14.426-59.648,39.731-69.837,39.731c-14.643-2.79-91.046-69.696-92.787-78.618c-0.602-3.098, 1.613-8.461, 5.491-13.35
			c 3.827-4.826, 8.563-8.269, 11.494-8.371c 2.688,0.282, 23.846,12.71, 36.493,20.134l 0.422,0.256c 25.92,15.232, 33.92,19.661, 37.005,19.661
			c 3.635-0.192, 12.301-9.050, 58.099-59.251C 332.070,209.997, 355.904,183.872, 359.578,181.274z"  />
<glyph unicode="&#x20;" horiz-adv-x="256" />
</font>
</defs>
</svg>
